# xmcd
#
# Track frame offsets:
#	150
#	13061
#	24865
#	38457
#	53029
#	66848
#	81391
#	95011
#	107555
#	122472
#	137107
#	151817
#	166456
#	181483
#	197606
#	208396
#	223018
#	234096
#	245916
#	259291
#	271454
#	282636
#	297773
#
# Disc length: 4156 seconds
#
# Revision: 0
# Processed by: cddbd v1.5.2PL0 Copyright (c) Steve Scherf et al.
# Submitted via: EZCDAudioConverter 2.8.1.1
#
DISCID=54103a17
DTITLE=Howlin Wolf and Muddy Waters - Big Box Of Howlin' Wolf and Muddy Waters CD 
DTITLE=6
DYEAR=1900
DGENRE=Blues
TTITLE0=Howlin Wolf - Back door man
TTITLE1=Howlin Wolf - Poor boy
TTITLE2=Howlin Wolf - California boogie
TTITLE3=Muddy Waters - I feel like going home
TTITLE4=Howlin Wolf - My life
TTITLE5=Howlin Wolf - Color and kind
TTITLE6=Muddy Waters - Rollin' and tumblin' [Pt. 1]
TTITLE7=Howlin Wolf - Mr. Airplane Man
TTITLE8=Howlin Wolf - Decoration day
TTITLE9=Muddy Waters - 0Country boy
TTITLE10=Howlin Wolf - I'll be around
TTITLE11=Howlin Wolf - Mama died and left me
TTITLE12=Muddy Waters - 3Baby please don't go
TTITLE13=Howlin Wolf - Change my way
TTITLE14=Howlin Wolf - Crazy about you baby
TTITLE15=Muddy Waters - My eyes (keep me in trouble)
TTITLE16=Howlin Wolf - Who's been talking
TTITLE17=Howlin Wolf - I have a little girl
TTITLE18=Muddy Waters - Don't go no farther
TTITLE19=Howlin Wolf - Ridin' in the moonlight
TTITLE20=Howlin Wolf - Somebody in my home
TTITLE21=Muddy Waters - She's nineteen years old
TTITLE22=Howlin Wolf - Getting late
EXTD=
EXTT0=
EXTT1=
EXTT2=
EXTT3=
EXTT4=
EXTT5=
EXTT6=
EXTT7=
EXTT8=
EXTT9=
EXTT10=
EXTT11=
EXTT12=
EXTT13=
EXTT14=
EXTT15=
EXTT16=
EXTT17=
EXTT18=
EXTT19=
EXTT20=
EXTT21=
EXTT22=
PLAYORDER=
